HIERARCHY
ROOT SpineBase
{
  OFFSET 0.000000 0.000000 0.000000
  CHANNELS 6 Xposition Yposition Zposition Zrotation Xrotation Yrotation
  JOINT SpineMid
  {
    OFFSET 0.000000 31.667593 0.000000
    CHANNELS 3 Zrotation Xrotation Yrotation
    JOINT SpineShoulder
    {
      OFFSET -0.362132 23.528680 -0.451408
      CHANNELS 3 Zrotation Xrotation Yrotation
      JOINT Neck
      {
        OFFSET -0.132811 7.832608 -0.449576
        CHANNELS 3 Zrotation Xrotation Yrotation
        JOINT Head
        {
          OFFSET -5.458809 13.031715 1.989276
          CHANNELS 3 Zrotation Xrotation Yrotation
          End Site
          {
            OFFSET 0 0 0
          }
        }
      }
      JOINT ShoulderLeft
      {
        OFFSET -15.062847 -3.260118 7.940327
        CHANNELS 3 Zrotation Xrotation Yrotation
        JOINT ElbowLeft
        {
          OFFSET -3.488802 -27.233038 3.197469
          CHANNELS 3 Zrotation Xrotation Yrotation
          JOINT WristLeft
          {
            OFFSET -0.051960 -21.806519 -2.420657
            CHANNELS 3 Zrotation Xrotation Yrotation
            JOINT HandLeft
            {
              OFFSET 1.149834 -5.983110 0.433843
              CHANNELS 3 Zrotation Xrotation Yrotation
              JOINT HandTipLeft
              {
                OFFSET 0.457888 -8.720148 -0.269561
                CHANNELS 3 Zrotation Xrotation Yrotation
                End Site
                {
                  OFFSET 0 0 0
                }
              }
              JOINT ThumbLeft
              {
                OFFSET -2.104206 0.744278 -1.834254
                CHANNELS 3 Zrotation Xrotation Yrotation
                End Site
                {
                  OFFSET 0 0 0
                }
              }
            }
          }
        }
      }
      JOINT ShoulderRight
      {
        OFFSET 12.900166 -2.538900 -7.299968
        CHANNELS 3 Zrotation Xrotation Yrotation
        JOINT ElbowRight
        {
          OFFSET 9.579282 -24.233794 -5.301115
          CHANNELS 3 Zrotation Xrotation Yrotation
          JOINT WristRight
          {
            OFFSET 1.521317 -20.560681 -8.819262
            CHANNELS 3 Zrotation Xrotation Yrotation
            JOINT HandRight
            {
              OFFSET -0.916639 -8.024944 -0.399986
              CHANNELS 3 Zrotation Xrotation Yrotation
              JOINT HandTipRight
              {
                OFFSET -0.737268 -8.477677 -1.540269
                CHANNELS 3 Zrotation Xrotation Yrotation
                End Site
                {
                  OFFSET 0 0 0
                }
              }
              JOINT ThumbRight
              {
                OFFSET 2.330373 -1.699591 -1.474522
                CHANNELS 3 Zrotation Xrotation Yrotation
                End Site
                {
                  OFFSET 0 0 0
                }
              }
            }
          }
        }
      }
    }
  }
  JOINT HipLeft
  {
    OFFSET -6.540389 0.466999 -0.963711
    CHANNELS 3 Zrotation Xrotation Yrotation
    JOINT KneeLeft
    {
      OFFSET 0.392432 -38.486901 -5.317845
      CHANNELS 3 Zrotation Xrotation Yrotation
      JOINT AnkleLeft
      {
        OFFSET 6.890152 -35.553527 2.070207
        CHANNELS 3 Zrotation Xrotation Yrotation
        JOINT FootLeft
        {
          OFFSET -1.791370 -7.529714 -6.892638
          CHANNELS 3 Zrotation Xrotation Yrotation
          End Site
          {
            OFFSET 0 0 0
          }
        }
      }
    }
  }
  JOINT HipRight
  {
    OFFSET 6.936779 1.899140 -5.945311
    CHANNELS 3 Zrotation Xrotation Yrotation
    JOINT KneeRight
    {
      OFFSET 4.375487 -34.523124 -12.234638
      CHANNELS 3 Zrotation Xrotation Yrotation
      JOINT AnkleRight
      {
        OFFSET 8.785656 -38.404283 8.223519
        CHANNELS 3 Zrotation Xrotation Yrotation
        JOINT FootRight
        {
          OFFSET 0.697215 -8.441593 -5.712824
          CHANNELS 3 Zrotation Xrotation Yrotation
          End Site
          {
            OFFSET 0 0 0
          }
        }
      }
    }
  }
}
MOTION
Frames: 13
Frame Time: 0.033333
-22.085829 81.695407 343.119872 -0.000000 0.000000 20.285954 -0.000000 0.000000 -20.285954 -0.000000 0.000000 0.000000 -0.000000 0.000000 0.000000 0.000000 0.000000 0.000000 -0.000000 0.000000 0.000000 -0.000000 0.000000 0.000000 -0.000000 0.000000 0.000000 -0.000000 0.000000 0.000000 0.000000 0.000000 0.000000 0.000000 0.000000 0.000000 -0.000000 0.000000 0.000000 -0.000000 0.000000 0.000000 -0.000000 0.000000 0.000000 -0.000000 0.000000 0.000000 0.000000 0.000000 0.000000 0.000000 0.000000 0.000000 -0.000000 0.000000 -20.285954 -0.000000 0.000000 0.000000 -0.000000 0.000000 0.000000 0.000000 0.000000 0.000000 -0.000000 0.000000 -20.285954 -0.000000 0.000000 0.000000 -0.000000 0.000000 0.000000 0.000000 0.000000 0.000000
-22.158680 81.818573 342.606243 0.570667 1.003072 21.522440 -0.898932 -0.723703 -21.533113 -0.000000 0.000000 0.000000 -0.000000 0.000000 0.000000 0.000000 0.000000 0.000000 -0.374972 -0.799241 0.055681 -0.812078 0.003635 0.081177 -10.789692 0.051188 -1.092069 9.029202 -0.865077 0.937535 0.000000 0.000000 0.000000 0.000000 0.000000 0.000000 -0.000000 0.000000 0.000000 0.600881 -1.884622 -0.389916 0.527965 0.078831 0.541049 -0.207199 -0.274159 -0.131561 0.000000 0.000000 0.000000 0.000000 0.000000 0.000000 -2.134668 -1.648186 -21.460043 2.042080 1.756201 0.016947 1.401781 3.313670 -3.442887 0.000000 0.000000 0.000000 -2.069013 0.240041 -20.967673 0.120323 -0.706571 -0.914830 -7.401232 -2.893320 5.932087 0.000000 0.000000 0.000000
-22.247375 81.938748 342.088830 1.026550 1.942398 22.538848 -0.711849 -0.766285 -22.530868 0.115963 0.218051 0.036700 0.202920 -0.275386 0.167723 0.000000 0.000000 0.000000 -1.487701 -2.535059 -0.004834 -1.483814 0.141102 0.175668 -18.633749 0.664569 -1.622687 15.548820 -1.948305 1.456520 0.000000 0.000000 0.000000 0.000000 0.000000 0.000000 -1.013621 -2.113625 -0.399079 1.296422 -2.403826 -0.375302 0.875456 0.503309 0.903008 -0.333950 -0.962938 -0.167385 0.000000 0.000000 0.000000 0.000000 0.000000 0.000000 -3.966910 -3.157229 -22.495832 3.626465 3.209766 -0.044027 2.584352 5.788208 -6.145045 0.000000 0.000000 0.000000 -3.860851 0.194958 -21.591193 0.186284 -1.005728 -1.630213 -14.565736 -6.958498 11.196810 0.000000 0.000000 0.000000
-22.351913 82.055930 341.567632 1.366126 2.815977 23.337202 -1.002504 -1.052425 -23.337190 0.173099 0.263655 0.049497 0.238892 -0.411384 0.269464 0.000000 0.000000 0.000000 -2.034194 -3.384829 -0.050847 -2.008048 0.419081 0.279180 -23.848132 1.603641 -1.698686 19.836400 -3.224669 1.741321 0.000000 0.000000 0.000000 0.000000 0.000000 0.000000 -1.406012 -2.910013 -0.513339 1.739936 -3.160600 -0.503716 1.015957 1.287050 1.087732 -0.372064 -2.075623 -0.105973 0.000000 0.000000 0.000000 0.000000 0.000000 0.000000 -5.462201 -4.557239 -23.373548 4.756036 4.359693 -0.142443 3.440177 7.545344 -8.073629 0.000000 0.000000 0.000000 -5.383518 -0.163171 -22.156795 0.177627 -0.913041 -2.141647 -20.636525 -11.512333 15.210792 0.000000 0.000000 0.000000
-22.472295 82.170120 341.042651 1.588170 3.622269 23.920126 -1.239363 -1.279800 -23.931687 0.228878 0.265528 0.059096 0.232672 -0.544988 0.381790 0.000000 0.000000 0.000000 -2.446837 -3.954159 -0.118229 -2.380275 0.840842 0.388091 -26.961327 2.761090 -1.446265 22.385989 -4.645780 1.899725 0.000000 0.000000 0.000000 0.000000 0.000000 0.000000 -1.720255 -3.540459 -0.571389 2.045551 -3.600890 -0.591629 0.931533 2.449494 1.101583 -0.311658 -3.624861 0.051518 0.000000 0.000000 0.000000 0.000000 0.000000 0.000000 -6.590511 -5.874279 -24.075740 5.432424 5.206817 -0.245978 3.915003 8.695781 -9.225256 0.000000 0.000000 0.000000 -6.642851 -0.857075 -22.664974 0.078157 -0.438701 -2.445921 -25.210252 -15.860615 17.819304 0.000000 0.000000 0.000000
-22.608520 82.281317 340.513886 1.691721 4.360089 24.290117 -1.417041 -1.451790 -24.313797 0.283033 0.222756 0.065644 0.184941 -0.675535 0.503825 0.000000 0.000000 0.000000 -2.723848 -4.242297 -0.202222 -2.598060 1.406231 0.499349 -28.370495 4.132930 -0.938379 23.573244 -6.199720 1.973338 0.000000 0.000000 0.000000 0.000000 0.000000 0.000000 -1.955922 -4.008136 -0.572664 2.214302 -3.718366 -0.638902 0.611915 4.016123 0.954794 -0.140562 -5.626733 0.301896 0.000000 0.000000 0.000000 0.000000 0.000000 0.000000 -7.325730 -7.128735 -24.585902 5.657127 5.752234 -0.330431 3.982251 9.311242 -9.602950 0.000000 0.000000 0.000000 -7.641181 -1.904856 -23.115384 -0.126095 0.411861 -2.539756 -28.258537 -19.587661 19.164104 0.000000 0.000000 0.000000
-22.694400 82.413510 339.882877 1.638216 5.152131 24.436846 -1.718470 -1.693652 -24.483022 0.376465 0.126164 0.066250 0.221229 -0.419519 0.768389 0.000000 0.000000 0.000000 -2.623623 -4.208946 -0.259246 -3.096634 2.273344 0.643850 -28.932900 7.849924 0.818493 24.791418 -9.882707 2.019423 0.000000 0.000000 0.000000 0.000000 0.000000 0.000000 -1.990060 -4.227743 -0.498503 2.402413 -3.543160 -0.716506 -0.493800 7.193771 0.648124 0.012025 -8.864735 0.785957 0.000000 0.000000 0.000000 0.000000 0.000000 0.000000 -7.374662 -8.365251 -24.882552 4.851157 5.456742 -0.365415 3.752749 10.062558 -9.002359 0.000000 0.000000 0.000000 -8.749558 -4.415581 -23.733784 -0.643203 3.241362 -2.076007 -29.615041 -23.141699 18.796647 0.000000 0.000000 0.000000
-22.829820 82.517652 339.281151 1.485962 5.845104 24.269590 -1.699370 -1.813720 -24.315886 0.481526 -0.001495 0.074001 -0.138587 -0.737005 0.866278 0.000000 0.000000 0.000000 -2.716140 -3.904036 -0.388037 -2.970784 3.322185 0.759686 -27.248898 10.154778 1.939699 22.967513 -11.932009 1.770370 0.000000 0.000000 0.000000 0.000000 0.000000 0.000000 -2.105086 -4.382326 -0.378064 2.020256 -2.972517 -0.597785 -0.838177 10.487876 -0.011447 -0.081660 -12.905802 1.322907 0.000000 0.000000 0.000000 0.000000 0.000000 0.000000 -7.107820 -9.627134 -24.844644 3.772285 5.201682 -0.353077 3.467911 10.431779 -8.148705 0.000000 0.000000 0.000000 -9.376789 -6.463986 -23.989888 -0.876069 5.110264 -1.669652 -31.176060 -29.068674 17.299935 0.000000 0.000000 0.000000
-23.011877 82.599791 338.784016 1.281478 6.321210 23.952856 -1.630235 -1.744730 -23.994051 0.505351 -0.183853 0.071065 -0.300493 -1.104815 0.921496 0.000000 0.000000 0.000000 -2.703394 -3.173411 -0.549489 -2.380801 4.054897 0.853285 -22.519093 11.917260 2.830888 19.062287 -12.737698 1.085544 0.000000 0.000000 0.000000 0.000000 0.000000 0.000000 -2.131957 -4.322826 -0.171146 1.545591 -1.980719 -0.434540 -1.181453 12.892574 -0.684694 0.800962 -16.099392 1.754667 0.000000 0.000000 0.000000 0.000000 0.000000 0.000000 -6.579161 -10.654771 -24.605269 2.770980 4.859083 -0.325608 2.581098 9.545901 -6.565068 0.000000 0.000000 0.000000 -9.304292 -8.280735 -24.142060 -1.458822 6.597754 -1.129420 -29.080329 -30.847246 15.141148 0.000000 0.000000 0.000000
-23.312596 82.678324 338.348288 0.893732 6.644905 23.717672 -1.450974 -1.617645 -23.738493 0.456424 -0.407121 0.055523 -0.345811 -1.439970 0.971470 0.000000 0.000000 0.000000 -2.338679 -2.370782 -0.654133 -1.692911 4.874826 0.892057 -16.372455 12.799616 3.388140 13.428836 -13.225706 -0.229503 0.000000 0.000000 0.000000 0.000000 0.000000 0.000000 -2.161926 -4.117145 0.103275 1.477434 -0.058699 -0.343936 -1.979283 13.292687 -1.186593 1.429977 -17.918651 2.035097 0.000000 0.000000 0.000000 0.000000 0.000000 0.000000 -5.719416 -11.682165 -24.406215 1.799481 4.660914 -0.258368 1.162676 7.440322 -4.370809 0.000000 0.000000 0.000000 -8.646186 -9.984423 -24.375743 -2.634422 7.653075 -0.576586 -26.660311 -27.721116 15.128650 0.000000 0.000000 0.000000
-23.698593 82.733499 338.017608 0.374455 6.818867 23.429874 -1.190433 -1.461336 -23.417346 0.362318 -0.639380 0.029823 -0.375102 -1.917200 0.941087 0.000000 0.000000 0.000000 -1.752403 -1.415741 -0.730023 -0.897201 5.474754 0.892270 -10.057667 10.714686 3.083226 9.385822 -9.750055 -0.887418 0.000000 0.000000 0.000000 0.000000 0.000000 0.000000 -2.149342 -3.770871 0.422919 0.991898 0.587352 -0.160739 -2.336668 13.636167 -1.638995 2.170109 -18.129205 2.148914 0.000000 0.000000 0.000000 0.000000 0.000000 0.000000 -4.631501 -12.667663 -24.110892 0.937355 4.658536 -0.157676 -0.092628 5.655515 -2.587415 0.000000 0.000000 0.000000 -7.446861 -11.466740 -24.503273 -4.253557 8.385258 0.021248 -24.169200 -25.367412 14.857094 0.000000 0.000000 0.000000
-24.104067 82.757113 337.777084 -0.151703 6.816287 23.144185 -0.972086 -1.306664 -23.100508 0.230565 -0.768144 -0.003255 -0.297404 -2.139024 0.982793 0.000000 0.000000 0.000000 -0.986482 -0.585846 -0.753376 -0.097537 5.719017 0.840018 -5.499923 7.888945 2.835674 7.140777 -6.067535 -1.186644 0.000000 0.000000 0.000000 0.000000 0.000000 0.000000 -2.034732 -3.293137 0.771466 0.774788 1.444196 -0.085416 -2.719312 13.072418 -1.998601 2.764817 -18.275109 2.233158 0.000000 0.000000 0.000000 0.000000 0.000000 0.000000 -3.597096 -13.506841 -23.794004 0.358158 4.958211 -0.045896 -0.921010 4.652998 -1.633124 0.000000 0.000000 0.000000 -5.972137 -12.596301 -24.546647 -5.962082 8.805324 0.608518 -22.329636 -23.325691 14.797204 0.000000 0.000000 0.000000
-24.474709 82.770256 337.577975 -0.623395 6.732400 23.056147 -0.865474 -1.186323 -22.992316 0.089728 -0.840873 -0.039381 -0.080671 -2.230074 1.031437 0.000000 0.000000 0.000000 -0.128669 0.058318 -0.728967 0.608275 5.743287 0.754079 -3.681453 4.921239 2.513708 7.291116 -4.742774 -1.090532 0.000000 0.000000 0.000000 0.000000 0.000000 0.000000 -1.844706 -2.751050 1.111236 0.502819 1.947523 -0.010496 -2.625055 13.108893 -2.402046 2.450726 -17.842950 2.193962 0.000000 0.000000 0.000000 0.000000 0.000000 0.000000 -2.466430 -14.017009 -23.645853 -0.471997 4.987138 0.088712 -0.645830 4.376565 -1.702155 0.000000 0.000000 0.000000 -4.607001 -13.600527 -24.758641 -7.922175 9.170834 1.158495 -20.457886 -21.435781 14.904159 0.000000 0.000000 0.000000
